<svg width="12" height="12" viewBox="0 0 12 12" fill="none" xmlns="http://www.w3.org/2000/svg">
<path d="M11.8534 11.1468L8.44261 7.73596C9.1033 6.91987 9.50109 5.88287 9.50109 4.75343C9.50109 2.1357 7.37113 0.0057373 4.7534 0.0057373C2.13568 0.0057373 0.0057373 2.13568 0.0057373 4.7534C0.0057373 7.37113 2.13571 9.50109 4.75343 9.50109C5.88287 9.50109 6.91987 9.1033 7.73596 8.44261L11.1468 11.8534C11.2443 11.9509 11.3722 11.9999 11.5001 11.9999C11.6281 11.9999 11.756 11.9509 11.8535 11.8534C12.0489 11.658 12.0489 11.3422 11.8534 11.1468ZM4.75343 8.50157C2.68643 8.50157 1.00526 6.8204 1.00526 4.7534C1.00526 2.68641 2.68643 1.00523 4.75343 1.00523C6.82043 1.00523 8.5016 2.68641 8.5016 4.7534C8.5016 6.8204 6.8204 8.50157 4.75343 8.50157Z" fill="#EDBC2F"/>
</svg>
